<?xml version="1.0" encoding="UTF-8"?>
<svg width="22px" height="13px" viewBox="0 0 22 13" version="1.1" xmlns="http://www.w3.org/2000/svg" xmlns:xlink="http://www.w3.org/1999/xlink">
    <!-- Generator: Sketch 49.1 (51147) - http://www.bohemiancoding.com/sketch -->
    <title>Right Arrow</title>
    <desc>Created with Sketch.</desc>
    <defs></defs>
    <g id="Page-1" stroke="none" stroke-width="1" fill="none" fill-rule="evenodd">
        <g id="MDN_ACCUEIL" transform="translate(-826.000000, -13750.000000)" fill="#FFFFFF" fill-rule="nonzero">
            <g id="cta_realisation" transform="translate(569.000000, 13720.000000)">
                <g id="Right-Arrow" transform="translate(257.000000, 30.000000)">
                    <g id="Layer_1">
                        <path d="M15.4706736,12.8450777 C15.2586528,12.6362694 15.2654922,12.3062176 15.4706736,12.0839378 L20.0120207,7.07253886 L0.547150259,7.07253886 C0.246217617,7.07253886 0,6.83005181 0,6.53367876 C0,6.2373057 0.246217617,5.99481865 0.547150259,5.99481865 L20.0120207,5.99481865 L15.477513,0.983419689 C15.279171,0.754404145 15.2586528,0.437823834 15.4706736,0.229015544 C15.6826943,0.0202072539 16.0520207,0.0067357513 16.2503627,0.222279793 C16.2503627,0.222279793 21.6671503,6.08238342 21.7218653,6.14974093 C21.7765803,6.21709845 21.8860104,6.33834197 21.8860104,6.53367876 C21.8860104,6.72901554 21.7765803,6.86373057 21.7218653,6.91761658 C21.6671503,6.97150259 16.2503627,12.8450777 16.2503627,12.8450777 C16.147772,12.946114 16.0041451,13 15.8605181,13 C15.7168912,13 15.5801036,12.946114 15.4706736,12.8450777 Z" id="Shape"></path>
                    </g>
                </g>
            </g>
        </g>
    </g>
</svg>