<svg xmlns="http://www.w3.org/2000/svg" viewBox="0 0 29 14.058">
  <defs>
    <style>
      .cls-1 {
        fill: #0f0f0f;
        stroke: #000;
        stroke-miterlimit: 10;
      }
    </style>
  </defs>
  <path id="Shape" class="cls-1" d="M-19.792,12.844a.466.466,0,0,0,0-.765L-25.6,7.042H-.7A.638.638,0,0,0,0,6.5a.638.638,0,0,0-.7-.542H-25.6L-19.8.922a.464.464,0,0,0,.009-.758.858.858,0,0,0-1-.007s-6.93,5.89-7,5.958A.537.537,0,0,0-28,6.5a.51.51,0,0,0,.21.386c.07.054,7,5.958,7,5.958a.829.829,0,0,0,.5.156A.848.848,0,0,0-19.792,12.844Z" transform="translate(28.5 0.558)"/>
</svg>
