<?xml version="1.0" encoding="UTF-8"?>
<svg width="53px" height="53px" viewBox="0 0 53 53" version="1.1" xmlns="http://www.w3.org/2000/svg" xmlns:xlink="http://www.w3.org/1999/xlink">
    <!-- Generator: Sketch 49.1 (51147) - http://www.bohemiancoding.com/sketch -->
    <title>Shape</title>
    <desc>Created with Sketch.</desc>
    <defs>
        <filter x="-15.6%" y="-10.4%" width="131.2%" height="131.2%" filterUnits="objectBoundingBox" id="filter-1">
            <feOffset dx="0" dy="5" in="SourceAlpha" result="shadowOffsetOuter1"></feOffset>
            <feGaussianBlur stdDeviation="3.5" in="shadowOffsetOuter1" result="shadowBlurOuter1"></feGaussianBlur>
            <feColorMatrix values="0 0 0 0 0   0 0 0 0 0   0 0 0 0 0  0 0 0 0.05 0" type="matrix" in="shadowBlurOuter1" result="shadowMatrixOuter1"></feColorMatrix>
            <feMerge>
                <feMergeNode in="shadowMatrixOuter1"></feMergeNode>
                <feMergeNode in="SourceGraphic"></feMergeNode>
            </feMerge>
        </filter>
    </defs>
    <g id="Page-1" stroke="none" stroke-width="1" fill="none" fill-rule="evenodd">
        <g id="MDN_ACCUEIL" transform="translate(-587.000000, -2979.000000)" fill="#FFFFFF" fill-rule="nonzero">
            <g id="button_art_état-4" filter="url(#filter-1)" transform="translate(565.000000, 2950.000000)">
                <g id="icon" transform="translate(29.000000, 31.000000)">
                    <g id="noun_1191327_cc">
                        <path d="M39,35.9151264 L39,38.4858544 C39,38.7696628 38.7701053,39 38.4868421,39 L0.513157895,39 C0.229894737,39 0,38.7696628 0,38.4858544 L0,35.9151264 C0,35.6313181 0.229894737,35.4009808 0.513157895,35.4009808 L1.02631579,35.4009808 L1.02631579,33.3443984 C1.02631579,33.0605901 1.25621053,32.8302529 1.53947368,32.8302529 L37.4605263,32.8302529 C37.7437895,32.8302529 37.9736842,33.0605901 37.9736842,33.3443984 L37.9736842,35.4009808 L38.4868421,35.4009808 C38.7701053,35.4009808 39,35.6313181 39,35.9151264 Z M38.4868421,4.5522451 L36.5029737,4.5522451 C36.4573026,4.5522451 36.4121447,4.54607536 36.3680132,4.53425001 L20.0403553,0.072494529 C19.6867895,-0.024164843 19.3137237,-0.024164843 18.9601579,0.072494529 L2.6325,4.53425001 C2.58785526,4.54607536 2.54269737,4.5522451 2.49702632,4.5522451 L0.513157895,4.5522451 C0.229894737,4.5522451 0,4.78258233 0,5.0663907 L0,8.66540987 C0,8.94921824 0.229894737,9.17955546 0.513157895,9.17955546 L38.4868421,9.17955546 C38.7701053,9.17955546 39,8.94921824 39,8.66540987 L39,5.0663907 C39,4.78258233 38.7701053,4.5522451 38.4868421,4.5522451 Z M2.56578947,31.0307433 L2.56578947,32.3161073 L8.72368421,32.3161073 L8.72368421,31.0307433 C8.72368421,30.4045139 8.27621053,29.8841986 7.68402632,29.7700583 L7.19806579,11.748741 C7.75843421,11.7410288 8.21052632,11.2849817 8.21052632,10.7219922 L8.21052632,9.69370106 L3.07894737,9.69370106 L3.07894737,10.7219922 C3.07894737,11.2849817 3.53103947,11.7410288 4.09140789,11.748741 L3.60544737,29.7700583 C3.01326316,29.8841986 2.56578947,30.4045139 2.56578947,31.0307433 Z M11.8026316,31.0307433 L11.8026316,32.3161073 L17.9605263,32.3161073 L17.9605263,31.0307433 C17.9605263,30.4045139 17.5130526,29.8841986 16.9208684,29.7700583 L16.4349079,11.748741 C16.9952763,11.7410288 17.4473684,11.2849817 17.4473684,10.7219922 L17.4473684,9.69370106 L12.3157895,9.69370106 L12.3157895,10.7219922 C12.3157895,11.2849817 12.7678816,11.7410288 13.32825,11.748741 L12.8422895,29.7700583 C12.2501053,29.8841986 11.8026316,30.4045139 11.8026316,31.0307433 Z M21.0394737,31.0307433 L21.0394737,32.3161073 L27.1973684,32.3161073 L27.1973684,31.0307433 C27.1973684,30.4045139 26.7498947,29.8841986 26.1577105,29.7700583 L25.67175,11.748741 C26.2321184,11.7410288 26.6842105,11.2849817 26.6842105,10.7219922 L26.6842105,9.69370106 L21.5526316,9.69370106 L21.5526316,10.7219922 C21.5526316,11.2849817 22.0047237,11.7410288 22.5650921,11.748741 L22.0791316,29.7700583 C21.4869474,29.8841986 21.0394737,30.4045139 21.0394737,31.0307433 Z M30.2763158,31.0307433 L30.2763158,32.3161073 L36.4342105,32.3161073 L36.4342105,31.0307433 C36.4342105,30.4045139 35.9867368,29.8841986 35.3945526,29.7700583 L34.9085921,11.748741 C35.4689605,11.7410288 35.9210526,11.2849817 35.9210526,10.7219922 L35.9210526,9.69370106 L30.7894737,9.69370106 L30.7894737,10.7219922 C30.7894737,11.2849817 31.2415658,11.7410288 31.8019342,11.748741 L31.3159737,29.7700583 C30.7237895,29.8841986 30.2763158,30.4045139 30.2763158,31.0307433 Z" id="Shape"></path>
                    </g>
                </g>
            </g>
        </g>
    </g>
</svg>