<svg id="icon" xmlns="http://www.w3.org/2000/svg" viewBox="0 0 25 25">
  <defs>
    <style>
      .cls-1 {
        fill: #8b8b8b;
      }
    </style>
  </defs>
  <g id="noun_1191327_cc">
    <path id="Shape" class="cls-1" d="M24.671,25H.329A.329.329,0,0,1,0,24.671V23.023a.33.33,0,0,1,.328-.33H.658V21.375a.33.33,0,0,1,.328-.33H24.013a.33.33,0,0,1,.329.33v1.318h.328a.33.33,0,0,1,.329.33v1.648A.33.33,0,0,1,24.671,25Zm-1.316-4.285H19.408v-.823a.824.824,0,0,1,.667-.808l.311-11.552a.661.661,0,0,1-.649-.658v-.66h3.29v.66a.66.66,0,0,1-.649.658l.311,11.552a.824.824,0,0,1,.666.808v.823Zm-5.921,0H13.486v-.823a.823.823,0,0,1,.667-.808l.311-11.552a.661.661,0,0,1-.649-.658v-.66h3.29v.66a.66.66,0,0,1-.649.658l.311,11.552a.823.823,0,0,1,.666.808v.823Zm-5.921,0H7.565v-.823a.823.823,0,0,1,.667-.808L8.544,7.531a.661.661,0,0,1-.649-.658v-.66h3.29v.66a.66.66,0,0,1-.649.658l.311,11.552a.823.823,0,0,1,.666.808v.823Zm-5.921,0H1.644v-.823a.823.823,0,0,1,.667-.808L2.623,7.531a.661.661,0,0,1-.649-.658v-.66h3.29v.66a.66.66,0,0,1-.649.658l.311,11.552a.823.823,0,0,1,.666.808v.823ZM24.671,5.884H.329A.329.329,0,0,1,0,5.555V3.248a.33.33,0,0,1,.328-.33H1.6a.356.356,0,0,0,.086-.011L12.154.047a1.306,1.306,0,0,1,.693,0l10.466,2.86a.357.357,0,0,0,.086.011h1.272a.33.33,0,0,1,.329.33V5.555A.33.33,0,0,1,24.671,5.884Z"/>
  </g>
</svg>
