<?xml version="1.0" encoding="utf-8"?>
<!-- Generator: Adobe Illustrator 22.1.0, SVG Export Plug-In . SVG Version: 6.00 Build 0)  -->
<svg version="1.1" id="Calque_1" xmlns="http://www.w3.org/2000/svg" xmlns:xlink="http://www.w3.org/1999/xlink" x="0px" y="0px"
	 viewBox="0 0 45 45" style="enable-background:new 0 0 45 45;" xml:space="preserve">
<style type="text/css">
	.st0{filter:url(#filter-1);}
	.st1{fill:#8B8B8B;}
</style>
<filter  filterUnits="objectBoundingBox" height="131.2%" id="filter-1" width="131.2%" x="-15.6%" y="-10.4%">
	<feOffset  dx="0" dy="5" in="SourceAlpha" result="shadowOffsetOuter1"></feOffset>
	<feGaussianBlur  in="shadowOffsetOuter1" result="shadowBlurOuter1" stdDeviation="3.5"></feGaussianBlur>
	
		<feColorMatrix  in="shadowBlurOuter1" result="shadowMatrixOuter1" type="matrix" values="0 0 0 0 0   0 0 0 0 0   0 0 0 0 0  0 0 0 0.05 0">
		</feColorMatrix>
	<feMerge>
		<feMergeNode  in="shadowMatrixOuter1"></feMergeNode>
		<feMergeNode  in="SourceGraphic"></feMergeNode>
	</feMerge>
</filter>
<title>Shape</title>
<desc>Created with Sketch.</desc>
<g id="Page-1">
	<g id="MDN_ACCUEIL" transform="translate(-791.000000, -6707.000000)">
		<g id="button_cloud_interact" transform="translate(772.000000, 6676.000000)" class="st0">
			<g id="icon_1_" transform="translate(26.000000, 33.000000)">
				<path id="Shape_1_" class="st1" d="M30.6,21c0.1-0.7,0.2-1.4,0.2-2.1c0-5.6-4.9-10.2-10.9-10.2c-4.6,0-8.6,2.7-10.2,6.5
					c-1-0.9-2.4-1.4-3.8-1.4c-3.1,0-5.6,2.3-5.6,5.1c0,0.7,0.2,1.4,0.5,2.1c-3.2,0.2-7.2,3.4-7.2,7.4c0,4.1,4.3,7.4,7.5,7.4H30
					c3.3,0,7.5-3.3,7.5-7.4C37.5,24.5,33.7,21.4,30.6,21z"/>
			</g>
		</g>
	</g>
</g>
</svg>
