<?xml version="1.0" encoding="UTF-8"?>
<svg width="58px" height="41px" viewBox="0 0 58 41" version="1.1" xmlns="http://www.w3.org/2000/svg" xmlns:xlink="http://www.w3.org/1999/xlink">
    <!-- Generator: Sketch 49.1 (51147) - http://www.bohemiancoding.com/sketch -->
    <title>Shape</title>
    <desc>Created with Sketch.</desc>
    <defs>
        <filter x="-15.6%" y="-10.4%" width="131.2%" height="131.2%" filterUnits="objectBoundingBox" id="filter-1">
            <feOffset dx="0" dy="5" in="SourceAlpha" result="shadowOffsetOuter1"></feOffset>
            <feGaussianBlur stdDeviation="3.5" in="shadowOffsetOuter1" result="shadowBlurOuter1"></feGaussianBlur>
            <feColorMatrix values="0 0 0 0 0   0 0 0 0 0   0 0 0 0 0  0 0 0 0.05 0" type="matrix" in="shadowBlurOuter1" result="shadowMatrixOuter1"></feColorMatrix>
            <feMerge>
                <feMergeNode in="shadowMatrixOuter1"></feMergeNode>
                <feMergeNode in="SourceGraphic"></feMergeNode>
            </feMerge>
        </filter>
    </defs>
    <g id="Page-1" stroke="none" stroke-width="1" fill="none" fill-rule="evenodd">
        <g id="MDN_ACCUEIL" transform="translate(-791.000000, -6707.000000)" fill="#FFFFFF" fill-rule="nonzero">
            <g id="button_cloud_interact" filter="url(#filter-1)" transform="translate(772.000000, 6676.000000)">
                <g id="icon" transform="translate(26.000000, 33.000000)">
                    <path d="M37.0745871,12.2756007 C37.2245019,11.603512 37.3043478,10.9081331 37.3043478,10.1961183 C37.3043478,4.56487985 32.406044,0 26.3654544,0 C21.731131,0 17.7812014,2.69001848 16.1859122,6.48133087 C15.1837642,5.60295749 13.8345308,5.05563771 12.3402711,5.05563771 C9.25398119,5.05563771 6.75268499,7.35804067 6.75268499,10.1977819 C6.75268499,10.9314233 6.92541293,11.6268022 7.22687208,12.2589649 C4.01022147,12.455268 0,15.6693161 0,19.6203327 C0,23.6961183 4.2725724,27 7.53484927,27 L36.4651507,27 C39.7257981,27 44,23.6961183 44,19.6203327 C43.9983705,15.7924214 40.2325754,12.6465804 37.0745871,12.2756007 Z" id="Shape"></path>
                </g>
            </g>
        </g>
    </g>
</svg>