<?xml version="1.0" encoding="UTF-8"?>
<svg width="284px" height="500px" viewBox="0 0 284 500" version="1.1" xmlns="http://www.w3.org/2000/svg" xmlns:xlink="http://www.w3.org/1999/xlink">
    <!-- Generator: Sketch 49.1 (51147) - http://www.bohemiancoding.com/sketch -->
    <title>flash</title>
    <desc>Created with Sketch.</desc>
    <defs></defs>
    <g id="Page-1" stroke="none" stroke-width="1" fill="none" fill-rule="evenodd" fill-opacity="0.200000018">
        <g id="Energie" transform="translate(-584.000000, -169.000000)" fill="#68A0B1" fill-rule="nonzero">
            <g id="flash" transform="translate(584.000000, 169.000000)">
                <path d="M282.554076,171.483733 C281.187862,168.550134 278.245474,166.667318 275.004257,166.667318 L176.254064,166.667318 L273.712262,12.7920172 C275.337265,10.2256059 275.436875,6.97559956 273.971051,4.31739124 C272.504252,1.65039385 269.703465,0 266.670256,0 L133.336988,0 C130.178778,0 127.294984,1.78320661 125.878965,4.60840744 L0.87872124,254.608896 C-0.413273471,257.184096 -0.271671632,260.250508 1.24493289,262.708521 C2.7703265,265.166534 5.44513641,266.666536 8.33674362,266.666536 L94.0283172,266.666536 L0.653134862,488.433571 C-0.938665122,492.225571 0.478329833,496.624993 3.98614918,498.775388 C5.33576119,499.600585 6.83576412,500 8.32795454,500 C10.7195608,500 13.0779638,498.974607 14.7117561,497.041986 L281.379269,180.374376 C283.470093,177.891949 283.92029,174.425145 282.554076,171.483733 Z" id="Shape"></path>
            </g>
        </g>
    </g>
</svg>