<svg version="1.1" id="Calque_1" xmlns="http://www.w3.org/2000/svg" xmlns:xlink="http://www.w3.org/1999/xlink" x="0px" y="0px"
	 viewBox="0 0 284 500" style="enable-background:new 0 0 284 500;" xml:space="preserve">
<style type="text/css">
	.st0{fill:#FC8E8E;fill-opacity:0.2;}
</style>
<path id="Shape" class="st0" d="M282.6,171.5c-1.4-2.9-4.3-4.8-7.5-4.8h-98.8l97.5-153.9c1.6-2.6,1.7-5.8,0.3-8.5
	c-1.5-2.7-4.3-4.3-7.3-4.3H133.3c-3.2,0-6,1.8-7.5,4.6l-125,250c-1.3,2.6-1.2,5.6,0.4,8.1c1.5,2.5,4.2,4,7.1,4H94L0.7,488.4
	c-1.6,3.8-0.2,8.2,3.3,10.3c1.3,0.8,2.8,1.2,4.3,1.2c2.4,0,4.8-1,6.4-3l266.7-316.7C283.5,177.9,283.9,174.4,282.6,171.5z"/>
</svg>
