<svg xmlns="http://www.w3.org/2000/svg" viewBox="0 0 20 20">
  <defs>
    <style>
      .cls-1 {
        opacity: 0.37;
      }

      .cls-2 {
        fill: #fff;
      }
    </style>
  </defs>
  <g id="Instagram" class="cls-1">
    <g id="Instagram-2" data-name="Instagram">
      <path id="Shape" class="cls-2" d="M10,20c-2.686,0-3.043-.011-4.123-.059a7.362,7.362,0,0,1-2.427-.464,4.953,4.953,0,0,1-1.771-1.155A4.938,4.938,0,0,1,.525,16.55,7.328,7.328,0,0,1,.06,14.122C.011,13.033,0,12.709,0,10,0,7.261.011,6.912.058,5.877A7.362,7.362,0,0,1,.523,3.45,4.953,4.953,0,0,1,1.678,1.678,4.94,4.94,0,0,1,3.45.525,7.328,7.328,0,0,1,5.878.06C6.966.011,7.291,0,10,0s3.034.011,4.124.06A7.341,7.341,0,0,1,16.55.525a4.938,4.938,0,0,1,1.771,1.154A4.952,4.952,0,0,1,19.476,3.45a7.374,7.374,0,0,1,.464,2.428C19.988,6.957,20,7.314,20,10s-.011,3.043-.059,4.124a7.36,7.36,0,0,1-.464,2.426,5.134,5.134,0,0,1-2.926,2.926,7.374,7.374,0,0,1-2.428.464C13.043,19.988,12.686,20,10,20ZM10,1.8c-2.679,0-2.994.01-4.041.058A5.556,5.556,0,0,0,4.1,2.2a3.113,3.113,0,0,0-1.15.748A3.123,3.123,0,0,0,2.2,4.1,5.554,5.554,0,0,0,1.86,5.959C1.812,7,1.8,7.32,1.8,10s.01,2.994.058,4.041A5.548,5.548,0,0,0,2.2,15.9a3.113,3.113,0,0,0,.748,1.15A3.123,3.123,0,0,0,4.1,17.8a5.528,5.528,0,0,0,1.856.345C7,18.188,7.313,18.2,10,18.2s3-.01,4.041-.058A5.522,5.522,0,0,0,15.9,17.8a3.322,3.322,0,0,0,1.9-1.9,5.52,5.52,0,0,0,.345-1.856C18.188,13,18.2,12.688,18.2,10s-.01-3-.058-4.041A5.53,5.53,0,0,0,17.8,4.1a3.307,3.307,0,0,0-1.9-1.9,5.546,5.546,0,0,0-1.856-.344C13,1.812,12.681,1.8,10,1.8Zm0,13.333A5.136,5.136,0,1,1,15.135,10,5.141,5.141,0,0,1,10,15.135Zm0-8.469A3.334,3.334,0,1,0,13.333,10,3.337,3.337,0,0,0,10,6.666Zm5.338-.8a1.2,1.2,0,1,1,1.2-1.2A1.2,1.2,0,0,1,15.338,5.863Z"/>
    </g>
  </g>
</svg>
