<svg id="Calque_1" data-name="Calque 1" xmlns="http://www.w3.org/2000/svg" viewBox="0 0 1 217">
  <defs>
    <style>
      .cls-1, .cls-10, .cls-2, .cls-3, .cls-4, .cls-5, .cls-6, .cls-7, .cls-8, .cls-9 {
        fill: #fff;
      }

      .cls-2 {
        opacity: 0.9;
      }

      .cls-3 {
        opacity: 0.8;
      }

      .cls-4 {
        opacity: 0.7;
      }

      .cls-5 {
        opacity: 0.6;
      }

      .cls-6 {
        opacity: 0.5;
      }

      .cls-7 {
        opacity: 0.4;
      }

      .cls-8 {
        opacity: 0.3;
      }

      .cls-9 {
        opacity: 0.2;
      }

      .cls-10 {
        opacity: 0.1;
      }
    </style>
  </defs>
  <title>line_scroll</title>
  <rect class="cls-1" y="211.1" width="1" height="6"/>
  <rect class="cls-1" y="201.92" width="1" height="6"/>
  <rect class="cls-1" y="192.75" width="1" height="6"/>
  <rect class="cls-1" y="183.57" width="1" height="6"/>
  <rect class="cls-1" y="174.39" width="1" height="6"/>
  <rect class="cls-1" y="165.21" width="1" height="6"/>
  <rect class="cls-1" y="156.03" width="1" height="6"/>
  <rect class="cls-1" y="146.85" width="1" height="6"/>
  <rect class="cls-1" y="137.68" width="1" height="6"/>
  <rect class="cls-1" y="128.5" width="1" height="6"/>
  <rect class="cls-1" y="119.32" width="1" height="6"/>
  <rect class="cls-1" y="110.14" width="1" height="6"/>
  <rect class="cls-1" y="100.96" width="1" height="6"/>
  <rect class="cls-1" y="91.78" width="1" height="6"/>
  <rect class="cls-1" y="82.61" width="1" height="6"/>
  <rect class="cls-2" y="73.43" width="1" height="6"/>
  <rect class="cls-3" y="64.25" width="1" height="6"/>
  <rect class="cls-4" y="55.07" width="1" height="6"/>
  <rect class="cls-5" y="45.89" width="1" height="6"/>
  <rect class="cls-6" y="36.71" width="1" height="6"/>
  <rect class="cls-7" y="27.54" width="1" height="6"/>
  <rect class="cls-8" y="18.36" width="1" height="6"/>
  <rect class="cls-9" y="9.18" width="1" height="6"/>
  <rect class="cls-10" width="1" height="6"/>
</svg>
