<svg xmlns="http://www.w3.org/2000/svg" viewBox="0 0 19.965 19.085">
  <defs>
    <style>
      .cls-1 {
        opacity: 0.37;
      }

      .cls-2 {
        fill: #fff;
      }
    </style>
  </defs>
  <g id="Linkedin" class="cls-1" transform="translate(-0.019 -0.019)">
    <path id="Shape" class="cls-2" d="M11.181,19.085H6.9c0-.1.056-11.658,0-12.875h4.28V8.03a4.279,4.279,0,0,1,3.857-2.124A4.631,4.631,0,0,1,18.557,7.32,6.263,6.263,0,0,1,19.965,11.7v7.382h-4.28V12.2c0-1.905-.75-2.912-2.168-2.912a2.386,2.386,0,0,0-2.2,1.566,2.847,2.847,0,0,0-.14,1.044v7.19Zm-6.648,0H.253V6.208H4.532V19.083ZM2.393,4.449H2.365A2.23,2.23,0,1,1,2.421,0a2.231,2.231,0,1,1-.028,4.449Z" transform="translate(0.019 0.019)"/>
  </g>
</svg>
