<svg xmlns="http://www.w3.org/2000/svg" viewBox="0 0 19.965 18.919">
  <defs>
    <style>
      .cls-1 {
        fill: #697995;
      }
    </style>
  </defs>
  <g id="Linkedin" transform="translate(-0.019 -0.019)">
    <path id="Shape" class="cls-1" d="M11.181,18.919H6.9c0-.1.056-11.557,0-12.764h4.28V7.96a4.284,4.284,0,0,1,3.857-2.106,4.652,4.652,0,0,1,3.519,1.4A6.174,6.174,0,0,1,19.965,11.6v7.318h-4.28V12.09c0-1.888-.75-2.886-2.168-2.886a2.382,2.382,0,0,0-2.2,1.552,2.8,2.8,0,0,0-.14,1.035v7.128Zm-6.648,0H.253V6.154H4.532V18.917ZM2.393,4.41H2.365A2.213,2.213,0,1,1,2.421,0a2.214,2.214,0,1,1-.028,4.41Z" transform="translate(0.019 0.019)"/>
  </g>
</svg>
