<?xml version="1.0" encoding="utf-8"?>
<!-- Generator: Adobe Illustrator 22.1.0, SVG Export Plug-In . SVG Version: 6.00 Build 0)  -->
<svg version="1.1" id="Calque_1" xmlns="http://www.w3.org/2000/svg" xmlns:xlink="http://www.w3.org/1999/xlink" x="0px" y="0px"
	 viewBox="0 0 168.7 129.6" style="enable-background:new 0 0 168.7 129.6;" xml:space="preserve">
<style type="text/css">
	.st0{fill:#515B6C;}
</style>
<title>logoMdnFd-Blanc</title>
<path class="st0" d="M19.9,58.9v12.6c0.1,1.7-1.2,3.2-2.9,3.3c-0.1,0-0.2,0-0.3,0c-1.8-0.2-3.2-1.9-3-3.7c0.2-1.6,1.5-2.9,3.1-3
	c0.7,0,1.3,0.1,1.9,0.4v-3.7c-0.7-0.2-1.4-0.3-2.1-0.4c-3.8,0-6.4,3.4-6.4,7c0,3.9,2.7,7.1,6.6,7.1s6.6-3.2,6.6-7.1V58.9H19.9z"/>
<path class="st0" d="M36.5,72.2c-0.3,1.7-1.8,3-3.5,2.9c-1.9,0-3.4-1.6-3.4-3.5c-0.1-1.8,1.2-3.3,3-3.5c0,0,0,0,0,0
	c0.7,0,1.6,0,1.9,0.4l-3.7,2.9l1.7,2.3l6.8-5.1c-1.1-2.6-3.7-4.2-6.5-4c-4.2,0-6.8,3.2-6.8,7s2.6,7.1,6.8,7.1c3.6,0.1,6.7-2.5,7.2-6
	L36.5,72.2z"/>
<path class="st0" d="M42.4,78.3h4.9c2.5,0,4.5-1.4,4.5-4.1c0-3.6-5.7-4.2-5.7-5.4c0-0.6,0.4-0.6,0.9-0.6h4.1v-3.3h-4.2
	c-2.3,0-4.4,1-4.4,4c0,3.3,5.4,3.7,5.4,5.4c0,0.4-0.3,0.8-1,0.8h-4.5V78.3z"/>
<path class="st0" d="M68.2,78.1v-8c0-1.1,0.9-2,2-2s2,0.9,2,2v8h3.5v-9.1c0-2.9-2.2-4.4-5.5-4.4s-5.5,1.5-5.5,4.4v9.2L68.2,78.1z"/>
<path class="st0" d="M81.1,64.8V74c0,2.9,2.3,4.4,5.5,4.4s5.5-1.5,5.5-4.4v-9.2h-3.5v7.9c0,1.1-0.9,2-2,2s-2-0.9-2-2v-7.9H81.1z"/>
<path class="st0" d="M109.7,78.1v-7.6c0-3.4-2.6-5.9-6.5-5.9c-3.7,0-6.5,2.8-6.5,7.1c0,3.5,2.2,6.6,6.3,6.6c0.7,0,1.5-0.1,2.2-0.3
	v-3.6c-0.6,0.3-1.3,0.4-2,0.4c-1.7,0-3.1-1.4-3.1-3.1c0,0,0-0.1,0-0.1c-0.1-1.8,1.2-3.3,2.9-3.4c0,0,0.1,0,0.1,0
	c1.9,0,3.1,1,3.1,2.6v7.5H109.7z"/>
<path class="st0" d="M116,83.3c1.4,0.5,2.8,0.7,4.2,0.7c4.6,0,6.9-2.3,6.9-6.9v-6.4c-0.1-3.5-3-6.2-6.5-6.2c-4,0-6.4,2.9-6.4,6.8
	s2.4,6.7,6.4,6.7c0.7,0,1.3-0.1,1.9-0.3V74c-0.6,0.2-1.3,0.3-1.9,0.3c-1.6,0.1-2.9-1.1-3-2.7c0-0.1,0-0.2,0-0.4
	c-0.1-1.7,1.2-3.1,2.8-3.2c0.1,0,0.1,0,0.2,0c1.6-0.1,2.9,1.2,3,2.8c0,0.1,0,0.2,0,0.3v6.5c0,2.4-1.8,2.8-3.5,2.8
	c-1.4,0-2.8-0.2-4.1-0.8L116,83.3z"/>
<path class="st0" d="M141.9,72.1c-0.3,1.7-1.8,2.9-3.5,2.8c-1.9,0-3.4-1.6-3.3-3.5c-0.2-1.7,1.1-3.3,2.9-3.4c0,0,0.1,0,0.1,0
	c0.8,0,1.6,0,1.9,0.4l-3.7,2.9l1.7,2.2l6.7-5c-1.7-3.4-5.9-4.8-9.3-3.1c-3.4,1.7-4.8,5.9-3.1,9.3c1.1,2.3,3.4,3.7,6,3.8
	c3.5,0.1,6.6-2.4,7.1-5.9L141.9,72.1z"/>
<path class="st0" d="M149.8,78.1h4.9c2.5,0,4.5-1.4,4.5-4c0-3.5-5.6-4.2-5.6-5.3c0-0.6,0.4-0.6,0.9-0.6h4v-3.3h-4.2
	c-2.3,0-4.3,1-4.3,3.9c0,3.3,5.4,3.7,5.4,5.3c0,0.4-0.3,0.7-1,0.7h-4.5L149.8,78.1z"/>
<path class="st0" d="M60.6,54.3v-8c0-1.4,0.6-2.1,1.9-2.1s1.9,0.8,1.9,2.1v8h3.7v-8.9c0.4-0.7,1.1-1.2,1.9-1.2
	c1.3,0,1.9,0.8,1.9,2.1v8h3.7v-9.2c0-2.9-2.4-4.4-5-4.4c-1.6,0-3.2,0.7-4.2,2c-1-1.2-2.5-1.9-4-2c-3.3,0-5.4,1.5-5.4,4.4v9.2H60.6z"
	/>
<path class="st0" d="M81.7,41v9.2c0,2.9,2.3,4.4,5.5,4.4s5.5-1.5,5.5-4.4V41h-3.5v8c0,1.1-0.9,2-2,2s-2-0.9-2-2v-8H81.7z"/>
<path class="st0" d="M98.1,54.3h4.9c2.5,0,4.5-1.4,4.5-4c0-3.5-5.7-4.2-5.7-5.4c0-0.6,0.4-0.6,0.9-0.6h4.1V41h-4.2
	c-2.3,0-4.3,1-4.3,3.9c0,3.3,5.4,3.7,5.4,5.4c0,0.4-0.3,0.7-1,0.7h-4.5V54.3z"/>
<polygon class="st0" points="119.3,32.4 116.8,36.4 119.5,36.4 123.6,32.4 "/>
<path class="st0" d="M122.6,48.3c-0.3,1.7-1.8,2.9-3.5,2.9c-1.9,0-3.4-1.6-3.4-3.5c-0.1-1.8,1.2-3.3,2.9-3.5c0,0,0,0,0.1,0
	c0.7,0,1.6,0,1.9,0.4l-3.7,2.9l1.7,2.2l6.8-5.1c-1.7-3.5-5.8-5-9.3-3.3c-3.5,1.7-5,5.8-3.3,9.3c1.1,2.4,3.5,3.9,6.2,4
	c3.6,0.1,6.7-2.5,7.2-6L122.6,48.3z"/>
<path class="st0" d="M141.3,48.3c-0.3,1.7-1.8,2.9-3.5,2.9c-1.9,0-3.4-1.6-3.4-3.5c-0.1-1.8,1.2-3.3,2.9-3.5c0,0,0,0,0.1,0
	c0.7,0,1.6,0,1.9,0.4l-3.7,2.9l1.7,2.2l6.8-5.1c-1.7-3.5-5.8-5-9.3-3.3s-5,5.8-3.3,9.3c1.1,2.4,3.5,3.9,6.2,4c3.6,0.1,6.7-2.5,7.2-6
	L141.3,48.3z"/>
<path class="st0" d="M113.4,6.7c-5.1-5.1-17.3-8.9-27.7-5.2c-5.3,1.8-14,8.6-15.9,22c-8.4-6.2-32.4-4.9-33.7,20.5
	c0,0-24.8,1.8-33.2,2.3C1.1,46.3,0,46.9,0,47.9c0,1.9,1.7,1.8,2.1,1.8s0,0,0,0L37,49.6c2.5,0,4.5-2,4.6-4.5c0-0.1,0-0.1,0-0.2
	c0-21.5,18.2-23.4,27.9-17.7c0,0,2.8,1.4,3.7,1s1.6-1,1.4-3c0.2-4,1.3-8,3.3-11.5c2-3.7,5.4-6.6,9.4-8c10-3.4,16.8,1.2,21.1,5
	c1.7,1.5,5.1,1,6.1,0.2S115.3,8.6,113.4,6.7z"/>
<path class="st0" d="M88.4,125.8l0.4-10.9c0-1.4,1.2-2.6,2.6-2.6h19.3c2.1,0,3.9-1.7,3.9-3.9V97.9c0-1.4,1.2-2.6,2.6-2.6
	c0.4,0,42.7-1.8,46.8-1.8c6.2,0,6.1-3.5-0.1-3.5l-51,0.3c-2.1,0-3.9,1.8-3.9,3.9v10.6c0,1.4-1.2,2.6-2.6,2.6H88
	c-2.1,0-3.8,1.8-3.8,3.9l0.4,14.4c0,2.2,0.6,3.9,2,3.9S88.4,128,88.4,125.8z"/>
</svg>
