<svg id="Calque_1" data-name="Calque 1" xmlns="http://www.w3.org/2000/svg" viewBox="0 0 168.67 129.64"><title>logoMdnFd-Blanc</title><path d="M34.75,93.31v12.62a3.12,3.12,0,0,1-3.15,3.35,3.36,3.36,0,0,1,.11-6.69,4.49,4.49,0,0,1,1.91.42V99.27a8.45,8.45,0,0,0-2.13-.38c-3.79,0-6.42,3.4-6.42,7,0,3.91,2.72,7.07,6.59,7.07s6.62-3.16,6.62-7.07V93.31Z" transform="translate(-14.88 -34.39)" style="fill:#fff"/><path d="M51.36,106.56a3.42,3.42,0,0,1-3.54,2.88,3.49,3.49,0,0,1-3.41-3.51,3.24,3.24,0,0,1,3-3.5c.74,0,1.58,0,1.94.4l-3.71,2.9L47.37,108l6.83-5.11a6.69,6.69,0,0,0-6.52-4c-4.17,0-6.79,3.2-6.79,7S43.5,113,47.68,113a7.09,7.09,0,0,0,7.24-6Z" transform="translate(-14.88 -34.39)" style="fill:#fff"/><path d="M57.26,112.65H62.2c2.52,0,4.53-1.41,4.53-4.08,0-3.55-5.7-4.22-5.7-5.42,0-.56.44-.61.89-.61H66V99.22H61.76c-2.32,0-4.37,1-4.37,4,0,3.34,5.42,3.73,5.42,5.41,0,.42-.33.75-1,.75H57.26Z" transform="translate(-14.88 -34.39)" style="fill:#fff"/><path d="M83.12,112.45v-8a2,2,0,1,1,4,0v8h3.49V103.3c0-2.89-2.24-4.41-5.48-4.41s-5.47,1.53-5.47,4.41v9.15Z" transform="translate(-14.88 -34.39)" style="fill:#fff"/><path d="M96,99.21v9.15c0,2.88,2.25,4.42,5.48,4.42s5.47-1.53,5.47-4.42V99.21h-3.48v7.94a2,2,0,1,1-4,0V99.21Z" transform="translate(-14.88 -34.39)" style="fill:#fff"/><path d="M124.59,112.45v-7.62c0-3.43-2.55-5.94-6.53-5.94-3.66,0-6.48,2.83-6.48,7.08,0,3.47,2.23,6.59,6.32,6.59a9.41,9.41,0,0,0,2.2-.33v-3.62a5.2,5.2,0,0,1-2,.41,3.07,3.07,0,0,1-3.06-3.19,3.19,3.19,0,0,1,3-3.45c1.9,0,3.1,1,3.1,2.61v7.46Z" transform="translate(-14.88 -34.39)" style="fill:#fff"/><path d="M130.92,117.65a12.23,12.23,0,0,0,4.21.68c4.62,0,6.93-2.32,6.93-6.86v-6.39a6.46,6.46,0,0,0-6.46-6.19c-4,0-6.45,2.92-6.45,6.78s2.43,6.67,6.45,6.67a6.38,6.38,0,0,0,1.93-.35v-3.62a5.64,5.64,0,0,1-1.93.33,2.87,2.87,0,0,1-3-3.08,3,3,0,0,1,3-3.19,2.9,2.9,0,0,1,3,3.11V112c0,2.43-1.84,2.83-3.51,2.83a10.89,10.89,0,0,1-4.14-.76Z" transform="translate(-14.88 -34.39)" style="fill:#fff"/><path d="M156.81,106.45a3.36,3.36,0,0,1-3.48,2.84,3.43,3.43,0,0,1-3.34-3.46,3.18,3.18,0,0,1,3-3.45c.75,0,1.58,0,1.92.39l-3.66,2.86,1.69,2.22,6.72-5a6.92,6.92,0,1,0-6.42,10,7,7,0,0,0,7.14-5.94Z" transform="translate(-14.88 -34.39)" style="fill:#fff"/><path d="M164.68,112.45h4.87c2.5,0,4.47-1.39,4.47-4,0-3.5-5.6-4.16-5.6-5.34,0-.55.43-.6.87-.6h4V99.21h-4.2c-2.28,0-4.3,1-4.3,3.89,0,3.29,5.35,3.67,5.35,5.33,0,.41-.34.73-1,.73h-4.49Z" transform="translate(-14.88 -34.39)" style="fill:#fff"/><path d="M75.47,88.73v-8c0-1.37.63-2.13,1.92-2.13s1.92.76,1.92,2.13v8H83V79.84a2.22,2.22,0,0,1,1.92-1.23c1.29,0,1.92.76,1.92,2.13v8H90.5V79.54c0-2.91-2.42-4.44-5-4.44a5.33,5.33,0,0,0-4.22,2,5.75,5.75,0,0,0-4-2c-3.26,0-5.45,1.54-5.45,4.44v9.19Z" transform="translate(-14.88 -34.39)" style="fill:#fff"/><path d="M96.58,75.43v9.21c0,2.89,2.25,4.42,5.51,4.42s5.51-1.53,5.51-4.42V75.43H104.1v8a2,2,0,1,1-4,0v-8Z" transform="translate(-14.88 -34.39)" style="fill:#fff"/><path d="M113,88.73h4.9c2.53,0,4.5-1.38,4.5-4,0-3.52-5.65-4.19-5.65-5.38,0-.55.44-.6.88-.6h4.06V75.43h-4.22c-2.31,0-4.33,1-4.33,3.92,0,3.31,5.37,3.7,5.37,5.37,0,.41-.33.74-1,.74H113Z" transform="translate(-14.88 -34.39)" style="fill:#fff"/><polygon points="119.33 32.44 116.77 36.38 119.49 36.38 123.55 32.44 119.33 32.44" style="fill:#fff"/><path d="M137.52,82.72A3.39,3.39,0,0,1,134,85.58a3.46,3.46,0,0,1-3.38-3.49,3.21,3.21,0,0,1,3-3.47c.74,0,1.57,0,1.93.4l-3.68,2.88,1.7,2.23,6.77-5.07a7,7,0,1,0-6.47,10,7,7,0,0,0,7.18-6Z" transform="translate(-14.88 -34.39)" style="fill:#fff"/><path d="M156.19,82.72a3.4,3.4,0,0,1-3.51,2.86,3.46,3.46,0,0,1-3.37-3.49,3.21,3.21,0,0,1,3-3.47c.74,0,1.57,0,1.93.4l-3.69,2.88,1.7,2.23L159,79.05a7,7,0,1,0-6.47,10,7,7,0,0,0,7.18-6Z" transform="translate(-14.88 -34.39)" style="fill:#fff"/><path d="M128.28,41.07C123.22,36,111,32.18,100.55,35.84c-5.26,1.83-14,8.56-15.87,22C76.31,51.65,52.33,52.94,51,78.32c0,0-24.78,1.75-33.21,2.27-1.85.11-2.89.68-2.89,1.73,0,1.9,1.66,1.77,2.09,1.77s0,0,0,0L51.86,84a4.52,4.52,0,0,0,4.57-4.65c0-21.46,18.2-23.36,27.86-17.66,0,0,2.85,1.42,3.7,1s1.61-1,1.37-3a26.53,26.53,0,0,1,3.31-11.48,17.3,17.3,0,0,1,9.4-8c10-3.44,16.77,1.16,21.06,5,1.71,1.55,5.1,1,6.06.21S130.17,43,128.28,41.07Z" transform="translate(-14.88 -34.39)" style="fill:#fff"/><path d="M103.32,160.14l.39-10.91a2.6,2.6,0,0,1,2.59-2.59h19.35a3.9,3.9,0,0,0,3.89-3.89V132.31a2.66,2.66,0,0,1,2.6-2.65c.4,0,42.7-1.81,46.78-1.81,6.19,0,6.15-3.51-.12-3.51l-51,.34a3.92,3.92,0,0,0-3.89,3.91v10.62a2.6,2.6,0,0,1-2.59,2.59H102.85A3.9,3.9,0,0,0,99,145.69l.39,14.45c0,2.22.64,3.89,2,3.89S103.32,162.36,103.32,160.14Z" transform="translate(-14.88 -34.39)" style="fill:#fff"/></svg>
