<?xml version="1.0" encoding="UTF-8"?>
<svg width="38px" height="39px" viewBox="0 0 38 39" version="1.1" xmlns="http://www.w3.org/2000/svg" xmlns:xlink="http://www.w3.org/1999/xlink">
    <!-- Generator: Sketch 49.1 (51147) - http://www.bohemiancoding.com/sketch -->
    <title>Group</title>
    <desc>Created with Sketch.</desc>
    <defs></defs>
    <g id="Page-1" stroke="none" stroke-width="1" fill="none" fill-rule="evenodd">
        <g id="MDN_ACCUEIL" transform="translate(-589.000000, -8778.000000)" fill="#FFFFFF" fill-rule="nonzero">
            <g id="button_partage_interact" transform="translate(560.000000, 8750.000000)">
                <g id="icon" transform="translate(29.000000, 28.000000)">
                    <g id="Group">
                        <path d="M37.1969658,0.971626298 L30.1838001,0.971626298 C29.7555151,0.971626298 29.3807658,1.34948097 29.3807658,1.78131488 L29.3807658,3.67058824 C29.3807658,3.67058824 29.3807658,3.67058824 29.3807658,3.67058824 C27.5070193,2.75294118 25.6868083,1.78131488 23.7595262,1.13356401 C22.1534577,0.593771626 20.440318,0.377854671 18.7807139,0 C17.8170728,0 15.6756482,0.107958478 15.5685769,0.107958478 C11.232192,0.701730104 7.37762768,2.42906574 3.84427703,4.91211073 C2.55942225,5.77577855 1.3816387,6.90934256 0.417997609,8.09688581 C-0.599179093,9.39238754 0.364461993,11.1197232 1.97053047,11.1197232 C2.82710033,11.1197232 3.68367018,10.7418685 4.48670442,10.3640138 C5.18266743,10.0401384 5.7715592,9.39238754 6.46752221,9.06851211 C10.2685509,7.23321799 14.2837221,6.47750865 18.4059646,6.36955017 C18.8877851,6.36955017 19.4231413,6.42352941 19.4231413,7.01730104 C19.4231413,7.61107266 18.8877851,7.61107266 18.4595002,7.61107266 C15.5685769,7.50311419 12.7311893,8.15086505 9.94733725,8.79861592 C8.34126877,9.17647059 7.53823453,9.93217993 7.64530576,11.0117647 C7.69884138,12.1453287 8.60894685,12.8470588 10.2685509,12.9010381 C11.8746194,12.9550173 13.4806879,12.9010381 15.0332208,12.7930796 C16.6392892,12.6851211 18.1918221,12.6851211 19.6908193,13.4408304 C20.1726399,13.6567474 20.7079961,13.8726644 21.2433522,13.8726644 C22.9564919,13.8186851 24.7231672,13.7647059 26.436307,13.6027682 C27.4534837,13.4948097 28.4171247,13.2788927 29.4343014,13.0629758 L29.4343014,14.7903114 C29.4343014,15.2221453 29.8090508,15.6 30.2373357,15.6 L37.1969658,15.6 C37.6252507,15.6 38,15.2221453 38,14.7903114 L38,1.78131488 C38,1.29550173 37.6252507,0.971626298 37.1969658,0.971626298 Z M33.2888658,14.5743945 C32.7535096,14.5743945 32.2716891,14.1425606 32.2716891,13.5487889 C32.2716891,13.0089965 32.699974,12.5231834 33.2888658,12.5231834 C33.824222,12.5231834 34.3060425,12.9550173 34.3060425,13.5487889 C34.3060425,14.0885813 33.8777576,14.5743945 33.2888658,14.5743945 Z" id="Shape"></path>
                        <path d="M0.803034239,38.0791667 L7.81619993,38.0791667 C8.24448485,38.0791667 8.61923417,37.7 8.61923417,37.2666667 L8.61923417,35.3708333 C8.61923417,35.3708333 8.61923417,35.3708333 8.61923417,35.3708333 C10.4929807,36.2375 12.3131917,37.2125 14.2404738,37.8625 C15.8465423,38.4041667 17.559682,38.6208333 19.2192861,39 C20.1829272,39 22.3243518,38.8916667 22.4314231,38.8916667 C26.767808,38.35 30.6223723,36.5625 34.155723,34.125 C35.4405778,33.2583333 36.6183613,32.1208333 37.5820024,30.9291667 C38.5991791,29.6291667 37.635538,27.8958333 36.0294695,27.8958333 C35.1728997,27.8958333 34.3163298,28.275 33.5132956,28.6541667 C32.8173326,28.9791667 32.2284408,29.6291667 31.5324778,29.9541667 C27.7314491,31.7958333 23.7162779,32.5541667 19.5940354,32.6625 C19.1122149,32.6625 18.5768587,32.6083333 18.5768587,32.0125 C18.5768587,31.4166667 19.1122149,31.4166667 19.5404998,31.4166667 C22.4314231,31.525 25.2688107,30.875 28.0526628,30.225 C29.6587312,29.8458333 30.4617655,29.0875 30.3546942,28.0041667 C30.3011586,26.8666667 29.3910532,26.1625 27.7314491,26.1083333 C26.1253806,26.0541667 24.5193121,26.1083333 22.9667792,26.2166667 C21.3607108,26.325 19.8081779,26.325 18.3091807,25.5666667 C17.8273601,25.35 17.2920039,25.1333333 16.7566478,25.1333333 C15.0435081,25.1875 13.2768328,25.2416667 11.563693,25.4041667 C10.5465163,25.5125 9.58287525,25.7291667 8.56569855,25.9458333 L8.56569855,24.2125 C8.56569855,23.7791667 8.19094924,23.4 7.76266431,23.4 L0.803034239,23.4 C0.374749312,23.4 0,23.7791667 0,24.2125 L0,37.2666667 C0,37.7541667 0.374749312,38.0791667 0.803034239,38.0791667 Z M4.7111342,24.4291667 C5.24649036,24.4291667 5.72831091,24.8625 5.72831091,25.4583333 C5.72831091,26 5.30002598,26.4875 4.7111342,26.4875 C4.17577804,26.4875 3.6939575,26.0541667 3.6939575,25.4583333 C3.6939575,24.9166667 4.12224243,24.4291667 4.7111342,24.4291667 Z" id="Shape"></path>
                    </g>
                </g>
            </g>
        </g>
    </g>
</svg>