<?xml version="1.0" encoding="UTF-8"?>
<svg width="818px" height="10027px" viewBox="0 0 818 10027" version="1.1" xmlns="http://www.w3.org/2000/svg" xmlns:xlink="http://www.w3.org/1999/xlink">
    <!-- Generator: Sketch 49 (51002) - http://www.bohemiancoding.com/sketch -->
    <title>svg_path</title>
    <desc>Created with Sketch.</desc>
    <defs></defs>
    <g id="Page-1" stroke="none" stroke-width="1" fill="none" fill-rule="evenodd" stroke-dasharray="8">
        <g id="MDN_ACCUEIL" transform="translate(-337.000000, -1276.000000)" stroke="#919EB4" stroke-width="4">
            <path d="M756.51644,1278 C626.210168,1396.46206 575.06797,1541.99202 603.089846,1714.58989 C645.122659,1973.48668 705.782639,1842.94502 756.51644,1973.48668 C807.250241,2104.02835 1024.14727,2121.07951 959.80257,2206.78666 C895.457873,2292.49381 534.888016,2565.0616 603.089846,2888.48197 C671.291675,3211.90233 767.746005,3064.25935 835.035996,3211.90233 C902.325986,3359.54531 833.59472,3540.16222 902.325986,3573.51228 C971.057252,3606.86234 1273.22918,3841.46623 1100.2981,3993.09617 C927.367027,4144.7261 563.482348,4489.7864 756.51644,4665.01213 C949.550532,4840.23786 1154.2153,4928.32716 1073.4523,5125.04237 C992.689303,5321.75758 571.804295,5420.37847 692.44747,5656.88808 C813.090644,5893.39768 951.981944,5913.00652 902.325986,5981.48698 C852.670027,6049.96744 460.886771,6040.71468 490.665306,6220.62948 C520.443841,6400.54429 821.151758,6368.44215 835.035996,6630.12575 C848.920233,6891.80935 728.252354,6797.89497 603.089846,7073.03896 C477.927337,7348.18295 1147.84581,7229.19659 1073.348,7543.30468 C998.850184,7857.41278 831.565267,7585.81362 671.779355,7680.02095 C511.993444,7774.22828 257.017237,7827.93108 364.769076,7978.84783 C472.520914,8129.76458 735.386861,8319.81361 734.963847,8436.91748 C734.540832,8554.02135 631.090623,8533.95879 538.513119,8667.12093 C445.935615,8800.28307 560.900916,8799.43239 572.178718,9036.15673 C583.456521,9272.88106 1108.9401,9160.56777 1058.53559,9366.91846 C1008.13109,9573.26915 1218.26735,9632.42791 946.285703,9900.86004 C674.304059,10169.2922 894.456596,10205.7891 887.09668,10369.7488 C879.736764,10533.7084 721.016997,10534.1426 651.623247,10559.161 C582.229496,10584.1793 418.826096,10673.7931 416,10684.8835 C413.173904,10695.9739 370.475587,10782.431 364.603619,10831.8276 C358.731651,10881.2243 443.854402,11078.3068 479.073511,11119.3512 C514.29262,11160.3956 742.474827,11149.5833 743.864177,11302" id="svg_path"></path>
        </g>
    </g>
</svg>