<svg width="754px" height="12457px" viewBox="0 0 754 12457" version="1.1" xmlns="http://www.w3.org/2000/svg" xmlns:xlink="http://www.w3.org/1999/xlink">
<style type="text/css">
	.st0{fill:none;stroke:#798496;stroke-width:4;stroke-dasharray:8;}
</style>
<path id="skeleton" class="st0" d="M438.7,2C308.3,120.5,257.1,266,285.1,438.6c42.1,258.9,421.5,406.5,357.1,492.2
	c-64.4,85.7-425.4,358.3-357.1,681.7S750.3,1774,429,2540c-114.4,272.8,133.4,373.8,210.2,460c138.9,155.8-110.9,350.1-222.2,473
	c-142.1,157,96.1,561,12,721s-68.1,470-23,560c45,90,300.4,138.3,314.3,400s-271.1,215.9-396.4,491s389.9,219.9,315.3,534
	s-614.6,332-524.5,534s302.9,330.8,302.5,447.9C416.7,7278,356.9,7305,300.8,7453s482,336,377.6,545S462,8129,300.8,8378
	s343.4,104,442.5,476c99.1,372-678.7,557-704.7,860c-26,303,498.5,153,495.5,354c-3,201-387.4,440-338.4,572s322.3,353,233.2,475
	s-240.3,330-282.3,384s-305.2,371,3,528s224.8,291,229.8,430"/>
</svg>
