<?xml version="1.0" encoding="UTF-8"?>
<svg width="819px" height="10024px" viewBox="0 0 819 10024" version="1.1" xmlns="http://www.w3.org/2000/svg" xmlns:xlink="http://www.w3.org/1999/xlink">
    <!-- Generator: Sketch 49.1 (51147) - http://www.bohemiancoding.com/sketch -->
    <title>skeleton</title>
    <desc>Created with Sketch.</desc>
    <defs></defs>
    <g id="Page-1" stroke="none" stroke-width="1" fill="none" fill-rule="evenodd" stroke-dasharray="8">
        <g id="MDN_ACCUEIL" transform="translate(-313.000000, -1293.000000)" stroke="#798496" stroke-width="4">
            <path d="M733.51644,1295 C603.210168,1413.46206 552.06797,1558.99202 580.089846,1731.58989 C622.122659,1990.48668 682.782639,1859.94502 733.51644,1990.48668 C784.250241,2121.02835 1001.14727,2138.07951 936.80257,2223.78666 C872.457873,2309.49381 511.888016,2582.0616 580.089846,2905.48197 C648.291675,3228.90233 744.746005,3081.25935 812.035996,3228.90233 C879.325986,3376.54531 810.59472,3557.16222 879.325986,3590.51228 C948.057252,3623.86234 1250.22918,3858.46623 1077.2981,4010.09617 C904.367027,4161.7261 540.482348,4506.7864 733.51644,4682.01213 C926.550532,4857.23786 1131.2153,4945.32716 1050.4523,5142.04237 C969.689303,5338.75758 548.804295,5437.37847 669.44747,5673.88808 C790.090644,5910.39768 928.981944,5930.00652 879.325986,5998.48698 C829.670027,6066.96744 437.886771,6057.71468 467.665306,6237.62948 C497.443841,6417.54429 798.151758,6385.44215 812.035996,6647.12575 C825.920233,6908.80935 705.252354,6814.89497 580.089846,7090.03896 C454.927337,7365.18295 1015.49782,7095.89191 941,7410 C866.502185,7724.10809 812.035996,7640 648.779355,7697.02095 C485.522715,7754.0419 234.017237,7844.93108 341.769076,7995.84783 C449.520914,8146.76458 712.386861,8336.81361 711.963847,8453.91748 C711.540832,8571.02135 608.090623,8550.95879 515.513119,8684.12093 C422.935615,8817.28307 568.812044,8816.27567 580.089846,9053 C591.367648,9289.72433 1009.19743,9022 973,9291 C936.80257,9560 941,9424 780,9673 C619,9922 871.456596,10222.7891 864.09668,10386.7488 C856.736764,10550.7084 698.016997,10551.1426 628.623247,10576.161 C559.229496,10601.1793 395.826096,10690.7931 393,10701.8835 C390.173904,10712.9739 347.475587,10799.431 341.603619,10848.8276 C335.731651,10898.2243 420.854402,11095.3068 456.073511,11136.3512 C491.29262,11177.3956 719.474827,11166.5833 720.864177,11319" id="skeleton"></path>
        </g>
    </g>
</svg>