<?xml version="1.0" encoding="UTF-8"?>
<svg width="754px" height="12457px" viewBox="0 0 754 12457" version="1.1" xmlns="http://www.w3.org/2000/svg" xmlns:xlink="http://www.w3.org/1999/xlink">
    <!-- Generator: Sketch 49.1 (51147) - http://www.bohemiancoding.com/sketch -->
    <title>skeleton</title>
    <desc>Created with Sketch.</desc>
    <defs></defs>
    <g id="Page-1" stroke="none" stroke-width="1" fill="none" fill-rule="evenodd" stroke-dasharray="8">
        <g id="MDN_ACCUEIL" transform="translate(-302.000000, -1293.000000)" stroke="#798496" stroke-width="4">
            <path d="M740.719696,1295 C610.277246,1413.46206 559.081601,1558.99202 587.132761,1731.58989 C629.209502,1990.48668 1008.63021,2138.07951 944.218272,2223.78666 C879.80633,2309.49381 518.859657,2582.0616 587.132761,2905.48197 C655.405866,3228.90233 1052.28751,3067 730.952049,3833 C616.517955,4105.78818 864.34628,4206.80495 941.171512,4293 C1080.07457,4448.84405 830.233561,4643.07799 718.939509,4766 C576.79111,4923 815.039834,5327 730.952049,5487 C646.864264,5647 662.880985,5957 707.928013,6047 C752.975041,6137 1008.35741,6185.3164 1022.25616,6447 C1036.15491,6708.6836 751.135629,6662.85601 625.842318,6938 C500.549007,7213.14399 1015.74718,7157.89191 941.171512,7472 C866.595842,7786.10809 326.529845,7804 416.6239,8006 C506.717956,8208 719.568035,8336.81361 719.144578,8453.91748 C718.721122,8571.02135 658.876805,8598 602.818282,8746 C546.759758,8894 1084.80348,9082 980.453531,9291 C876.103583,9500 763.986536,9422 602.818282,9671 C441.650027,9920 946.176737,9775 1045.2802,10147 C1144.38366,10519 366.571647,10704 340.544476,11007 C314.517304,11310 839.064916,11160 836.061781,11361 C833.058645,11562 448.657342,11801 497.70855,11933 C546.759758,12065 820.04506,12286 730.952049,12408 C641.859039,12530 490.690065,12738 448.666944,12792 C406.643823,12846 143.49904,13163 451.668596,13320 C759.838151,13477 695.802919,13611 718.815581,13751" id="skeleton"></path>
        </g>
    </g>
</svg>