<svg id="Twitter" xmlns="http://www.w3.org/2000/svg" viewBox="0 0 20 16.667">
  <defs>
    <style>
      .cls-1 {
        fill: #697995;
      }
    </style>
  </defs>
  <g id="Twitter-black">
    <g id="Icons">
      <g id="Black">
        <path id="Twitter-2" data-name="Twitter" class="cls-1" d="M20,1.973a8.015,8.015,0,0,1-2.356.663,4.2,4.2,0,0,0,1.8-2.327,8.081,8.081,0,0,1-2.607,1.02A4.045,4.045,0,0,0,13.846,0a4.156,4.156,0,0,0-4.1,4.207,4.3,4.3,0,0,0,.106.958A11.554,11.554,0,0,1,1.392.768,4.284,4.284,0,0,0,.837,2.885a4.236,4.236,0,0,0,1.825,3.5A4.028,4.028,0,0,1,.8,5.863v.052A4.183,4.183,0,0,0,4.1,10.04a3.913,3.913,0,0,1-1.081.148,3.968,3.968,0,0,1-.773-.075,4.119,4.119,0,0,0,3.833,2.921,8.1,8.1,0,0,1-5.1,1.8A8.255,8.255,0,0,1,0,14.778a11.426,11.426,0,0,0,6.29,1.889c7.548,0,11.675-6.41,11.675-11.971,0-.183,0-.366-.011-.545A8.421,8.421,0,0,0,20,1.973" transform="translate(0 0)"/>
      </g>
    </g>
  </g>
</svg>
