<svg id="Calque_1" data-name="Calque 1" xmlns="http://www.w3.org/2000/svg" viewBox="0 0 354.22 354.22">
  <defs>
    <style>
      .cls-1 {
        fill: #00b4ff;
      }
    </style>
  </defs>
  <title>up&amp;amp;up</title>
  <g>
    <g>
      <path d="M223.52,127.39V100.32h8.09v27.07a8.77,8.77,0,1,0,17.53,0V100.32h8.15v27.07a16.77,16.77,0,0,1-4.93,11.93,16.91,16.91,0,0,1-28.84-11.93"/>
      <path d="M281.62,114.55a3.07,3.07,0,0,0,3.05-3.1,3.16,3.16,0,0,0-3.05-3.16H274.2v6.26Zm-15.51,29.09V100.31h15.51a11.11,11.11,0,1,1,0,22.21H274.2v21.12Z"/>
      <path d="M206.36,78.44A27.26,27.26,0,0,1,213.52,60a26.44,26.44,0,0,1,19.56-8.66c14.68,0,26.74,12.27,26.74,27.1V92.18H284.5V78.44a51.53,51.53,0,0,0-81.93-41.5l-16.8-4.67L190.72,49a51.22,51.22,0,0,0-9.23,29.46V92.18h24.88Z"/>
      <path d="M191.87,113.73a5.43,5.43,0,0,0,3.24-5.23,5.14,5.14,0,0,0-1.82-3.92,6,6,0,0,0-4.21-1.59,6.14,6.14,0,0,0-4.26,1.7,5.49,5.49,0,0,0-1.88,3.81c0,1.65,1,3.41,2.85,5.23l2.15,2Zm5.23,17.11-10.46-10-3.24,1.65c-3.58,1.88-5.4,4.61-5.4,8.3a8.78,8.78,0,0,0,2.5,6.2,8.6,8.6,0,0,0,6.31,2.55,8.82,8.82,0,0,0,8.18-4.94Zm13.24,12.79-10-9.61-1.26,2.22c-2.84,5-6.87,7.5-12,7.5a13.37,13.37,0,0,1-9.5-3.92,12.91,12.91,0,0,1-4-9.44,12.2,12.2,0,0,1,.57-3.75,11.44,11.44,0,0,1,2.44-3.86,22.32,22.32,0,0,1,4.66-4.15l2-1.25-1.31-1.48c-2.22-2.44-3.3-5-3.18-7.62a9.4,9.4,0,0,1,3.18-6.76,10.11,10.11,0,0,1,7.16-2.67,10.81,10.81,0,0,1,7.39,3.07,8.77,8.77,0,0,1,3.07,7.1c-.17,3.92-2.33,6.94-6.48,9l-2,1,8.18,8,6.31-12.27h4.83L202.44,130l10.8,10.63Z"/>
      <path class="cls-1" d="M259.62,164.46a27.3,27.3,0,0,1-7.15,18.44,26.46,26.46,0,0,1-19.57,8.66c-14.68,0-26.74-12.27-26.74-27.1V150.73H181.48v13.74A51.54,51.54,0,0,0,263.42,206l16.8,4.68-5-16.71a51.32,51.32,0,0,0,9.23-29.46V150.72H259.62Z"/>
      <path d="M118.57,215.33H60.79V193.28h57.78a23.88,23.88,0,1,0,0-47.76H60.79V123.3h57.78A45.69,45.69,0,0,1,151,136.73a46.51,46.51,0,0,1,13.41,32.67,45.89,45.89,0,0,1-45.86,45.93"/>
      <path d="M99.54,57a8.34,8.34,0,0,0-8.45-8.29A8.6,8.6,0,0,0,82.48,57V77.2H99.54Zm64.3,42.28h-103V57a30.22,30.22,0,1,1,60.43,0V77.2h42.62Z"/>
    </g>
    <g>
      <g>
        <path d="M68.35,268.1A13.21,13.21,0,0,1,62.29,265l-.55-.49,2.55-2.9.55.49a9.54,9.54,0,0,0,4.27,2.23h0a6.4,6.4,0,0,0,1.3.15,4.57,4.57,0,0,0,1.94-.41A2.24,2.24,0,0,0,73.89,262a1.75,1.75,0,0,0-1-1.54,8.76,8.76,0,0,0-2.7-.9,21.06,21.06,0,0,1-4.67-1.42,6.24,6.24,0,0,1-2.09-2.06,5.41,5.41,0,0,1-.72-2.78,5.9,5.9,0,0,1,1-3.22,6.87,6.87,0,0,1,2.55-2,8.1,8.1,0,0,1,3.45-.75,13.61,13.61,0,0,1,1.54.11A11.78,11.78,0,0,1,76.73,250l.55.46-2.46,3-.55-.46a7.28,7.28,0,0,0-4.55-1.89,4.45,4.45,0,0,0-1.8.38,2.11,2.11,0,0,0-1.34,1.77,1.56,1.56,0,0,0,.79,1.42,7.85,7.85,0,0,0,2.72,1l.64.14a13,13,0,0,1,4,1.25A5.82,5.82,0,0,1,77,259.12a5.4,5.4,0,0,1,.78,2.87,5.84,5.84,0,0,1-1,3.45A7,7,0,0,1,74,267.58a7.59,7.59,0,0,1-3.57.76A10.4,10.4,0,0,1,68.35,268.1Z"/>
        <path d="M93.9,268.16V251.35H88.82v-3.83h14v3.83H97.78v16.81Z"/>
        <path d="M127.36,268.16,120,258.07h-1.65v10.09H114.6V247.52H122a5.34,5.34,0,0,1,5.28,5.27,5.36,5.36,0,0,1-3,4.79l7.68,10.58ZM122,254.3a1.51,1.51,0,1,0,0-3h-3.62v3Z"/>
        <path d="M156.76,268.16l-2.12-5.56H147.8l-2.15,5.56h-4.14l7.94-20.64H153l8,20.64Zm-3.63-9.39-1.91-5-1.91,5Z"/>
        <path d="M174.56,268.16V251.35h-5.07v-3.83h14v3.83h-5.07v16.81Z"/>
        <path d="M195.49,268.16V247.52h13.6v3.77h-9.71v3h8.47v3.86h-8.47v6.15h9.45v3.82Zm11.17-26.56-3.13,4.06h-1.95l1.95-4.06Z"/>
        <path d="M220.08,257.67a10.79,10.79,0,0,1,15-10,10.34,10.34,0,0,1,3.48,2.35l.56.55-2.88,2.52-.49-.46a6.64,6.64,0,0,0-4.84-1.94,7,7,0,0,0,0,13.91,7,7,0,0,0,5.07-2.17v-4.29h-5.65v-3.86h9.45v9.51l-.14.18a10.93,10.93,0,0,1-8.73,4.46A10.81,10.81,0,0,1,220.08,257.67Z"/>
        <path d="M253.71,268.16V247.52h3.89v20.64Z"/>
        <path d="M272.45,268.16V247.52h13.6v3.77h-9.72v3h8.47v3.86h-8.47v6.15h9.46v3.82Z"/>
      </g>
      <path d="M66,297.16a9.34,9.34,0,0,1-2.9-2,8.35,8.35,0,0,1-2-2.92,8.84,8.84,0,0,1-.74-3.56,9.17,9.17,0,0,1,9.16-9.13,9.22,9.22,0,0,1,7.31,3.69l.39.49-2.63,1.93-.36-.49a5.82,5.82,0,0,0-4.71-2.35,5.89,5.89,0,1,0,4.71,9.42l.36-.47,2.61,1.92-.4.49a9.09,9.09,0,0,1-3.21,2.7c-1.25.63-1.39.95-2.81.95A16.59,16.59,0,0,1,66,297.16Z"/>
      <path d="M80.62,288.75a9.14,9.14,0,1,1,9.13,9.1A9.15,9.15,0,0,1,80.62,288.75Zm3.29,0a5.84,5.84,0,1,0,5.84-5.89A5.85,5.85,0,0,0,83.91,288.75Z"/>
      <path d="M114.23,297.6V285.93l-4.56,6.23-4.54-6.23V297.6h-3.26V280.13h3.06l4.74,6.51,4.74-6.51h3.09V297.6Z"/>
      <path d="M135,297.6V285.93l-4.56,6.23-4.54-6.23V297.6h-3.27V280.13h3.07l4.74,6.51,4.73-6.51h3.09V297.6Z"/>
      <path d="M143,291.05V280.13h3.27v10.92a3.53,3.53,0,1,0,7.06,0V280.13h3.29v10.92a6.74,6.74,0,0,1-2,4.81A6.82,6.82,0,0,1,143,291.05Z"/>
      <path d="M172.45,297.6l-7.75-11.45V297.6h-3.29V280.13h3.19l7.73,11.44V280.13h3.29V297.6Z"/>
      <path d="M181.35,297.6V280.13h3.29V297.6Z"/>
      <path d="M194.38,297.16a9.19,9.19,0,0,1-2.89-2,8.52,8.52,0,0,1-2-2.92,8.83,8.83,0,0,1-.73-3.56A9.12,9.12,0,0,1,202,280.58a8.9,8.9,0,0,1,3.21,2.7l.39.49L203,285.7l-.37-.49a5.79,5.79,0,0,0-4.71-2.35,5.89,5.89,0,1,0,4.71,9.42l.37-.47,2.6,1.92-.39.49a9,9,0,0,1-7.29,3.65A9.23,9.23,0,0,1,194.38,297.16Z"/>
      <path d="M220.76,297.6l-1.8-4.71h-5.78l-1.82,4.71h-3.51l6.72-17.47h3l6.75,17.47Zm-3.07-8-1.62-4.24-1.62,4.24Z"/>
      <path d="M229,297.6V283.37h-4.29v-3.24h11.88v3.24h-4.3V297.6Z"/>
      <path d="M241.29,297.6V280.13h3.29V297.6Z"/>
      <path d="M248.7,288.75a9.14,9.14,0,1,1,9.13,9.1A9.15,9.15,0,0,1,248.7,288.75Zm3.29,0a5.84,5.84,0,1,0,5.84-5.89A5.85,5.85,0,0,0,252,288.75Z"/>
      <path d="M281.65,297.6l-7.75-11.45V297.6h-3.29V280.13h3.19l7.73,11.44V280.13h3.29V297.6Z"/>
      <g>
        <path d="M62.58,327.49v-19H75.1V312h-9v2.81h5v3.53h-5v9.2Z"/>
        <path d="M84.37,317.83a10,10,0,1,1,9.95,9.93A10,10,0,0,1,84.37,317.83Zm3.58,0a6.37,6.37,0,1,0,6.37-6.42A6.39,6.39,0,0,0,88,317.83Z"/>
        <path d="M127.26,327.49l-6.76-9.31H119v9.31h-3.48v-19h6.83a4.92,4.92,0,0,1,4.86,4.86,5,5,0,0,1-2.78,4.42l7.09,9.76Zm-4.94-12.78a1.4,1.4,0,0,0,0-2.79H119v2.79Z"/>
        <path d="M155,327.49V314.76l-5,6.79-4.95-6.79v12.73h-3.55v-19h3.34l5.16,7.08,5.17-7.08h3.37v19Z"/>
        <path d="M184.17,327.49l-2-5.14H175.9l-2,5.14h-3.83l7.33-19h3.24l7.36,19Zm-3.35-8.67-1.76-4.62-1.77,4.62Z"/>
        <path d="M200.79,327.49V312h-4.68v-3.53h12.94V312h-4.67v15.51Z"/>
        <path d="M221.8,327.49v-19h3.59v19Z"/>
        <path d="M237.51,317.83a10,10,0,1,1,10,9.93A10,10,0,0,1,237.51,317.83Zm3.59,0a6.37,6.37,0,1,0,6.36-6.42A6.38,6.38,0,0,0,241.1,317.83Z"/>
        <path d="M281.08,327.49,272.62,315v12.49H269v-19h3.48L281,320.91V308.45h3.58v19Z"/>
      </g>
    </g>
  </g>
</svg>
